<?xml version="1.0" standalone="no"?><!DOCTYPE svg PUBLIC "-//W3C//DTD SVG 1.1//EN" "http://www.w3.org/Graphics/SVG/1.1/DTD/svg11.dtd"><svg t="1663292179235" class="icon" viewBox="0 0 1025 1024" version="1.1" xmlns="http://www.w3.org/2000/svg" p-id="7190" xmlns:xlink="http://www.w3.org/1999/xlink" width="200.1953125" height="200"><path d="M512.073143 950.857143q-14.848 0-25.161143-10.313143l-356.571429-343.990857q-5.705143-4.534857-15.725714-14.848t-31.744-37.449143-38.838857-55.734857-30.573714-69.12-13.458286-78.848q0-125.732571 72.557714-196.534857t200.557714-70.875429q35.401143 0 72.265143 12.288t68.534857 33.133714 54.564571 39.131429 43.446857 38.838857q20.553143-20.553143 43.446857-38.838857t54.564571-39.131429 68.534857-33.133714 72.265143-12.288q128 0 200.557714 70.875429t72.557714 196.534857q0 126.317714-130.852571 257.170286l-355.986286 342.820571q-10.313143 10.313143-25.161143 10.313143z" p-id="7191"></path></svg>